<svg viewBox="0 0 512 512" xmlns="http://www.w3.org/2000/svg">
    <g>
        <path d="m304.438 215.562h32v248.438h-32z" fill="#ea9d2d" />
        <path d="m328 215.562h8.438v248.438h-8.438z" fill="#d18d28" />
        <path d="m392.966 241.321-72.528-33.759 74.27-159.562 24.892 31.315a80 80 0 0 1 9.9 83.533z" fill="#0296e5" />
        <path d="m320.438 207.562 106.287-38.769-33.759 72.528-72.528-33.759 38.769 106.287-72.528-33.759z" fill="#2cbff4" />
        <path d="m354.2 135.034-33.759 72.528-159.562-74.27 31.316-24.887a80 80 0 0 1 83.532-9.9z" fill="#029532" />
        <path d="m320.438 207.562-38.769-106.287 72.528 33.759z" fill="#02a437" />
        <path d="m247.91 173.8 72.528 33.759-74.27 159.562-24.887-31.316a80 80 0 0 1 -9.9-83.532z" fill="#ea9d2d" />
        <path d="m320.438 207.562-106.287 38.769 33.759-72.528z" fill="#fbb540" />
        <path d="m286.679 280.09 33.759-72.528 159.562 74.27-31.315 24.887a80 80 0 0 1 -83.533 9.9z" fill="#c44c31" />
        <g fill="#43dcfe">
            <path d="m136 160a32.036 32.036 0 0 0 -32 32 8 8 0 0 0 16 0 16 16 0 1 1 16 16h-48a8 8 0 0 0 0 16h48a32 32 0 0 0 0-64z" />
            <path d="m120 272h-40a8 8 0 0 0 0 16h40a16 16 0 1 1 -16 16 8 8 0 0 0 -16 0 32 32 0 1 0 32-32z" />
            <path d="m112 256h-48a8 8 0 0 1 0-16h48a8 8 0 0 1 0 16z" />
            <path d="m160 256h-16a8 8 0 0 1 0-16h16a8 8 0 0 1 0 16z" />
            <path d="m56 224h-32a8 8 0 0 1 0-16h32a8 8 0 0 1 0 16z" />
            <path d="m32 256h-.13l-8-.128a8 8 0 0 1 .126-16h.13l8 .128a8 8 0 0 1 -.126 16z" />
            <path d="m48 288h-24a8 8 0 0 1 0-16h24a8 8 0 0 1 0 16z" />
        </g>
        <path d="m359.207 313.849-38.769-106.287-33.759 72.528z" fill="#f16465" />
        <path d="m298.68 197.434a24 24 0 1 1 11.63 31.886 24 24 0 0 1 -11.63-31.886z" fill="#ffb3b3" />
        <circle cx="320.438" cy="207.562" fill="#eaeae8" r="11.051" />
    </g>
</svg>